solid OpenSCAD_Model
  facet normal 0 0 -1
    outer loop
      vertex 30 0 0
      vertex 25 5 0
      vertex 30 14 0
    endloop
  endfacet
  facet normal 0 0 -1
    outer loop
      vertex -5 -8 0
      vertex 25 5 0
      vertex 30 0 0
    endloop
  endfacet
  facet normal 0 0 -1
    outer loop
      vertex -5 9 0
      vertex 0 5 0
      vertex -5 -8 0
    endloop
  endfacet
  facet normal -0 0 -1
    outer loop
      vertex 25 5 0
      vertex -5 -8 0
      vertex 0 5 0
    endloop
  endfacet
  facet normal 0 0 -1
    outer loop
      vertex -7 -48 0
      vertex -5 -8 0
      vertex 30 0 0
    endloop
  endfacet
  facet normal 0 0 -1
    outer loop
      vertex -12 -8 0
      vertex -7 -48 0
      vertex -12 -48 0
    endloop
  endfacet
  facet normal 0 0 -1
    outer loop
      vertex -7 -48 0
      vertex -12 -8 0
      vertex -5 -8 0
    endloop
  endfacet
  facet normal -0 0 -1
    outer loop
      vertex 30 14 0
      vertex 25 5 0
      vertex 25 14 0
    endloop
  endfacet
  facet normal 0 0 -1
    outer loop
      vertex 0 5 0
      vertex -5 9 0
      vertex 0 14 0
    endloop
  endfacet
  facet normal 0 0 -1
    outer loop
      vertex -30 14 0
      vertex -5 9 0
      vertex -30 9 0
    endloop
  endfacet
  facet normal 0 0 -1
    outer loop
      vertex -5 9 0
      vertex -30 14 0
      vertex 0 14 0
    endloop
  endfacet
  facet normal 0 0 1
    outer loop
      vertex 0 14 20
      vertex -5 9 20
      vertex 0 5 20
    endloop
  endfacet
  facet normal -0 0 1
    outer loop
      vertex -30 14 20
      vertex -5 9 20
      vertex 0 14 20
    endloop
  endfacet
  facet normal 0 0 1
    outer loop
      vertex -5 9 20
      vertex -30 14 20
      vertex -30 9 20
    endloop
  endfacet
  facet normal 0 0 1
    outer loop
      vertex 25 5 20
      vertex 30 14 20
      vertex 25 14 20
    endloop
  endfacet
  facet normal 0 0 1
    outer loop
      vertex 30 14 20
      vertex 25 5 20
      vertex 30 0 20
    endloop
  endfacet
  facet normal 0 0 1
    outer loop
      vertex -5 -8 20
      vertex 25 5 20
      vertex 0 5 20
    endloop
  endfacet
  facet normal 0 0 1
    outer loop
      vertex -5 -8 20
      vertex 0 5 20
      vertex -5 9 20
    endloop
  endfacet
  facet normal 0 0 1
    outer loop
      vertex 25 5 20
      vertex -5 -8 20
      vertex 30 0 20
    endloop
  endfacet
  facet normal -0 0 1
    outer loop
      vertex -5 -8 20
      vertex -7 -48 20
      vertex 30 0 20
    endloop
  endfacet
  facet normal -0 0 1
    outer loop
      vertex -12 -8 20
      vertex -7 -48 20
      vertex -5 -8 20
    endloop
  endfacet
  facet normal 0 0 1
    outer loop
      vertex -7 -48 20
      vertex -12 -8 20
      vertex -12 -48 20
    endloop
  endfacet
  facet normal 0.79201 -0.610508 0
    outer loop
      vertex -7 -48 20
      vertex 30 0 0
      vertex 30 0 20
    endloop
  endfacet
  facet normal 0.79201 -0.610508 0
    outer loop
      vertex 30 0 0
      vertex -7 -48 20
      vertex -7 -48 0
    endloop
  endfacet
  facet normal 1 -0 0
    outer loop
      vertex 30 0 20
      vertex 30 14 0
      vertex 30 14 20
    endloop
  endfacet
  facet normal 1 0 0
    outer loop
      vertex 30 14 0
      vertex 30 0 20
      vertex 30 0 0
    endloop
  endfacet
  facet normal 0 1 -0
    outer loop
      vertex 30 14 0
      vertex 25 14 20
      vertex 30 14 20
    endloop
  endfacet
  facet normal 0 1 0
    outer loop
      vertex 25 14 20
      vertex 30 14 0
      vertex 25 14 0
    endloop
  endfacet
  facet normal -1 0 0
    outer loop
      vertex 25 5 0
      vertex 25 14 20
      vertex 25 14 0
    endloop
  endfacet
  facet normal -1 -0 0
    outer loop
      vertex 25 14 20
      vertex 25 5 0
      vertex 25 5 20
    endloop
  endfacet
  facet normal 0 1 -0
    outer loop
      vertex 25 5 0
      vertex 0 5 20
      vertex 25 5 20
    endloop
  endfacet
  facet normal 0 1 0
    outer loop
      vertex 0 5 20
      vertex 25 5 0
      vertex 0 5 0
    endloop
  endfacet
  facet normal 1 -0 0
    outer loop
      vertex 0 5 20
      vertex 0 14 0
      vertex 0 14 20
    endloop
  endfacet
  facet normal 1 0 0
    outer loop
      vertex 0 14 0
      vertex 0 5 20
      vertex 0 5 0
    endloop
  endfacet
  facet normal 0 1 0
    outer loop
      vertex -15 14 13
      vertex 0 14 20
      vertex -10 14 13
    endloop
  endfacet
  facet normal 0 1 0
    outer loop
      vertex 0 14 20
      vertex -10 14 11.75
      vertex -10 14 13
    endloop
  endfacet
  facet normal 0 1 0
    outer loop
      vertex -10 14 11.75
      vertex 0 14 0
      vertex -15 14 11.75
    endloop
  endfacet
  facet normal 0 1 -0
    outer loop
      vertex 0 14 0
      vertex -10 14 11.75
      vertex 0 14 20
    endloop
  endfacet
  facet normal 0 1 0
    outer loop
      vertex 0 14 20
      vertex -15 14 13
      vertex -30 14 20
    endloop
  endfacet
  facet normal 0 1 -0
    outer loop
      vertex -15 14 11.75
      vertex -30 14 20
      vertex -15 14 13
    endloop
  endfacet
  facet normal 0 1 0
    outer loop
      vertex -30 14 0
      vertex -15 14 11.75
      vertex 0 14 0
    endloop
  endfacet
  facet normal 0 1 0
    outer loop
      vertex -15 14 11.75
      vertex -30 14 0
      vertex -30 14 20
    endloop
  endfacet
  facet normal -1 0 0
    outer loop
      vertex -30 9 0
      vertex -30 14 20
      vertex -30 14 0
    endloop
  endfacet
  facet normal -1 -0 0
    outer loop
      vertex -30 14 20
      vertex -30 9 0
      vertex -30 9 20
    endloop
  endfacet
  facet normal 0 -1 0
    outer loop
      vertex -30 9 20
      vertex -15 9 13
      vertex -5 9 20
    endloop
  endfacet
  facet normal 0 -1 0
    outer loop
      vertex -30 9 20
      vertex -15 9 11.75
      vertex -15 9 13
    endloop
  endfacet
  facet normal 0 -1 0
    outer loop
      vertex -5 9 0
      vertex -15 9 11.75
      vertex -30 9 0
    endloop
  endfacet
  facet normal 0 -1 0
    outer loop
      vertex -30 9 0
      vertex -15 9 11.75
      vertex -30 9 20
    endloop
  endfacet
  facet normal 0 -1 0
    outer loop
      vertex -10 9 13
      vertex -5 9 20
      vertex -15 9 13
    endloop
  endfacet
  facet normal 0 -1 0
    outer loop
      vertex -10 9 11.75
      vertex -5 9 20
      vertex -10 9 13
    endloop
  endfacet
  facet normal 0 -1 0
    outer loop
      vertex -10 9 11.75
      vertex -5 9 0
      vertex -5 9 20
    endloop
  endfacet
  facet normal 0 -1 0
    outer loop
      vertex -15 9 11.75
      vertex -5 9 0
      vertex -10 9 11.75
    endloop
  endfacet
  facet normal -1 0 0
    outer loop
      vertex -5 -8 0
      vertex -5 9 20
      vertex -5 9 0
    endloop
  endfacet
  facet normal -1 -0 0
    outer loop
      vertex -5 9 20
      vertex -5 -8 0
      vertex -5 -8 20
    endloop
  endfacet
  facet normal 0 1 -0
    outer loop
      vertex -5 -8 0
      vertex -12 -8 20
      vertex -5 -8 20
    endloop
  endfacet
  facet normal 0 1 0
    outer loop
      vertex -12 -8 20
      vertex -5 -8 0
      vertex -12 -8 0
    endloop
  endfacet
  facet normal -1 0 0
    outer loop
      vertex -12 -48 0
      vertex -12 -8 20
      vertex -12 -8 0
    endloop
  endfacet
  facet normal -1 -0 0
    outer loop
      vertex -12 -8 20
      vertex -12 -48 0
      vertex -12 -48 20
    endloop
  endfacet
  facet normal 0 -1 0
    outer loop
      vertex -12 -48 0
      vertex -7 -48 20
      vertex -12 -48 20
    endloop
  endfacet
  facet normal 0 -1 -0
    outer loop
      vertex -7 -48 20
      vertex -12 -48 0
      vertex -7 -48 0
    endloop
  endfacet
  facet normal -0 0 1
    outer loop
      vertex -15 14 11.75
      vertex -10 9 11.75
      vertex -10 14 11.75
    endloop
  endfacet
  facet normal 0 0 1
    outer loop
      vertex -10 9 11.75
      vertex -15 14 11.75
      vertex -15 9 11.75
    endloop
  endfacet
  facet normal 0 0 -1
    outer loop
      vertex -15 9 13
      vertex -10 14 13
      vertex -10 9 13
    endloop
  endfacet
  facet normal -0 0 -1
    outer loop
      vertex -10 14 13
      vertex -15 9 13
      vertex -15 14 13
    endloop
  endfacet
  facet normal 1 -0 0
    outer loop
      vertex -15 9 13
      vertex -15 14 11.75
      vertex -15 14 13
    endloop
  endfacet
  facet normal 1 0 0
    outer loop
      vertex -15 14 11.75
      vertex -15 9 13
      vertex -15 9 11.75
    endloop
  endfacet
  facet normal -1 0 0
    outer loop
      vertex -10 9 11.75
      vertex -10 14 13
      vertex -10 14 11.75
    endloop
  endfacet
  facet normal -1 -0 0
    outer loop
      vertex -10 14 13
      vertex -10 9 11.75
      vertex -10 9 13
    endloop
  endfacet
endsolid OpenSCAD_Model
