<?xml version="1.0" standalone="no"?>
<!DOCTYPE svg PUBLIC "-//W3C//DTD SVG 1.1//EN" "http://www.w3.org/Graphics/SVG/1.1/DTD/svg11.dtd">
<svg width="333mm" height="260mm" viewBox="-91 -175 333 260" xmlns="http://www.w3.org/2000/svg" version="1.1">
<title>OpenSCAD Model</title>
<path d="
M 75,-40 L 78,-40 L 78,-50 L 75,-50 L 75,-60 L 78,-60
 L 78,-70 L 75,-70 L 75,-80 L 78,-80 L 78,-90 L 75,-90
 L 75,-100 L 78,-100 L 78,-110 L 75,-110 L 75,-120 L 78,-120
 L 78,-130 L 75,-130 L 75,-140 L 78,-140 L 78,-150 L 75,-150
 L 75,-160 L 78,-160 L 78,-170 L 75,-170 L 75,-175 L 0,-175
 L 0,-170 L -2.99998,-170 L -2.99998,-160 L 0,-160 L 0,-150 L -2.99998,-150
 L -2.99998,-140 L 0,-140 L 0,-130 L -2.99998,-130 L -2.99998,-120 L 0,-120
 L 0,-110 L -2.99998,-110 L -2.99998,-100 L 0,-100 L 0,-90 L -2.99998,-90
 L -2.99998,-80 L 0,-80 L 0,-70 L -2.99998,-70 L -2.99998,-60 L 0,-60
 L 0,-50 L -2.99998,-50 L -2.99998,-40 L 0,-40 L 0,-30 L 75,-30
 z
M 184,-0 L 194,-0 L 194,3 L 204,3 L 204,-0 L 214,-0
 L 214,3 L 224,3 L 224,-0 L 234,-0 L 234,3 L 239,3
 L 239,-0 L 242,-0 L 242,-10 L 239,-10 L 239,-20 L 242,-20
 L 242,-30 L 239,-30 L 239,-40 L 242,-40 L 242,-50 L 239,-50
 L 239,-60 L 242,-60 L 242,-70 L 239,-70 L 239,-80 L 242,-80
 L 242,-90 L 239,-90 L 239,-100 L 242,-100 L 242,-110 L 239,-110
 L 239,-120 L 242,-120 L 242,-130 L 239,-130 L 239,-140 L 242,-140
 L 242,-150 L 239,-150 L 239,-160 L 242,-160 L 242,-170 L 239,-170
 L 239,-175 L 164,-175 L 164,-170 L 161,-170 L 161,-160 L 164,-160
 L 164,-150 L 161,-150 L 161,-140 L 164,-140 L 164,-130 L 161,-130
 L 161,-120 L 164,-120 L 164,-110 L 161,-110 L 161,-100 L 164,-100
 L 164,-90 L 161,-90 L 161,-80 L 164,-80 L 164,-70 L 161,-70
 L 161,-60 L 164,-60 L 164,-50 L 161,-50 L 161,-40 L 164,-40
 L 164,-30 L 161,-30 L 161,-20 L 164,-20 L 164,-10 L 161,-10
 L 161,-0 L 174,-0 L 174,3 L 184,3 z
M 152,2.99998 L 157,2.99998 L 157,-10 L 160,-10 L 160,-20 L 157,-20
 L 157,-30 L 160,-30 L 160,-40 L 157,-40 L 157,-50 L 160,-50
 L 160,-60 L 157,-60 L 157,-70 L 160,-70 L 160,-80 L 157,-80
 L 157,-90 L 160,-90 L 160,-100 L 157,-100 L 157,-110 L 160,-110
 L 160,-120 L 157,-120 L 157,-130 L 160,-130 L 160,-140 L 157,-140
 L 157,-150 L 160,-150 L 160,-160 L 157,-160 L 157,-170 L 160,-170
 L 160,-175 L 79,-175 L 79,-170 L 82,-170 L 82,-160 L 79,-160
 L 79,-150 L 82,-150 L 82,-140 L 79,-140 L 79,-130 L 82,-130
 L 82,-120 L 79,-120 L 79,-110 L 82,-110 L 82,-100 L 79,-100
 L 79,-90 L 82,-90 L 82,-80 L 79,-80 L 79,-70 L 82,-70
 L 82,-60 L 79,-60 L 79,-50 L 82,-50 L 82,-40 L 79,-40
 L 79,-30 L 82,-30 L 82,-0 L 92,-0 L 92,2.99998 L 102,2.99998
 L 102,-0 L 112,-0 L 112,2.99998 L 122,2.99998 L 122,-0 L 132,-0
 L 132,2.99998 L 142,2.99998 L 142,-0 L 152,-0 z
M 147.808,-158.854 L 154.879,-165.925 L 157,-163.804 L 149.929,-156.733 z
M 133.665,-144.712 L 140.737,-151.783 L 142.858,-149.662 L 135.787,-142.591 z
M 119.523,-130.57 L 126.594,-137.641 L 128.716,-135.52 L 121.645,-128.449 z
M 82,-105.355 L 84.1213,-107.477 L 91.1924,-100.406 L 89.0711,-98.2843 z
M 96.1422,-91.2132 L 98.2635,-93.3345 L 105.335,-86.2634 L 103.213,-84.1421 z
M 110.284,-77.0711 L 112.406,-79.1924 L 119.477,-72.1213 L 117.355,-70 z
M 146.84,-40.8993 L 155.5,-45.8993 L 157,-43.3013 L 148.34,-38.3013 z
M 129.519,-30.8993 L 138.18,-35.8993 L 139.68,-33.3013 L 131.019,-28.3013 z
M 112.199,-20.8993 L 120.859,-25.8993 L 122.359,-23.3013 L 113.699,-18.3013 z
M 94.8782,-10.8993 L 103.538,-15.8993 L 105.038,-13.3013 L 96.3782,-8.30127 z
M 82.9484,-4.01167 L 86.218,-5.89934 L 87.718,-3.30127 L 84.4484,-1.41359 z
M -77,2.99998 L -77,-0 L -67,-0 L -67,2.99998 L -57,2.99998 L -57,-0
 L -47,-0 L -47,2.99998 L -37,2.99998 L -37,-0 L -27,-0 L -27,2.99998
 L -17,2.99998 L -17,-0 L -7,-0 L -7,-30 L -4,-30 L -4,-40
 L -7,-40 L -7,-50 L -4,-50 L -4,-60 L -7,-60 L -7,-70
 L -4,-70 L -4,-80 L -7,-80 L -7,-90 L -4,-90 L -4,-100
 L -7,-100 L -7,-110 L -4,-110 L -4,-120 L -7,-120 L -7,-130
 L -4,-130 L -4,-140 L -7,-140 L -7,-150 L -4,-150 L -4,-160
 L -7,-160 L -7,-170 L -4,-170 L -4,-175 L -85,-175 L -85,-170
 L -82,-170 L -82,-160 L -85,-160 L -85,-150 L -82,-150 L -82,-140
 L -85,-140 L -85,-130 L -82,-130 L -82,-120 L -85,-120 L -85,-110
 L -82,-110 L -82,-100 L -85,-100 L -85,-90 L -82,-90 L -82,-80
 L -85,-80 L -85,-70 L -82,-70 L -82,-60 L -85,-60 L -85,-50
 L -82,-50 L -82,-40 L -85,-40 L -85,-30 L -82,-30 L -82,-20
 L -85,-20 L -85,-10 L -82,-10 L -82,2.99998 z
M -82,-163.804 L -79.8787,-165.925 L -72.8076,-158.854 L -74.9289,-156.733 z
M -67.8579,-149.662 L -65.7366,-151.783 L -58.6655,-144.712 L -60.7868,-142.591 z
M -53.7157,-135.52 L -51.5944,-137.641 L -44.5233,-130.57 L -46.6447,-128.449 z
M -16.1924,-100.406 L -9.12132,-107.477 L -7,-105.355 L -14.0711,-98.2843 z
M -30.3345,-86.2634 L -23.2635,-93.3345 L -21.1422,-91.2132 L -28.2132,-84.1421 z
M -44.4767,-72.1213 L -37.4056,-79.1924 L -35.2843,-77.0711 L -42.3553,-70 z
M -82,-43.3013 L -80.5,-45.8993 L -71.8398,-40.8993 L -73.3398,-38.3013 z
M -64.6795,-33.3013 L -63.1795,-35.8993 L -54.5192,-30.8993 L -56.0192,-28.3013 z
M -47.359,-23.3013 L -45.859,-25.8993 L -37.1987,-20.8993 L -38.6987,-18.3013 z
M -30.0385,-13.3013 L -28.5385,-15.8993 L -19.8782,-10.8993 L -21.3782,-8.30127 z
M -12.718,-3.30127 L -11.218,-5.89934 L -7.94843,-4.01167 L -9.44843,-1.41359 z
M 78,17 L 75,17 L 75,7 L 78,7 L 78,-3 L 75,-3
 L 75,-13 L 78,-13 L 78,-23 L -2.99998,-23 L -2.99998,-13 L 0,-13
 L 0,-3 L -3,-3 L -3,6.99998 L 0,6.99998 L 0,17 L -3,17
 L -3,27 L 78,27 z
M 92,82 L 102,82 L 102,85 L 112,85 L 112,82 L 122,82
 L 122,85 L 132,85 L 132,82 L 142,82 L 142,85 L 152,85
 L 152,82 L 160,82 L 160,72 L 157,72 L 157,62 L 160,62
 L 160,52 L 157,52 L 157,42 L 160,42 L 160,32 L 157,32
 L 157,22 L 160,22 L 160,12 L 157,12 L 157,7 L 152,7
 L 152,4 L 142,4 L 142,7 L 132,7 L 132,4 L 122,4
 L 122,7 L 112,7 L 112,4 L 102,4 L 102,7 L 92,7
 L 92,4 L 82,4 L 82,85 L 92,85 z
M -80.7753,82 L -70.7753,82 L -70.7753,85 L -60.7753,85 L -60.7753,82 L -50.7753,82
 L -50.7753,85 L -40.7753,85 L -40.7753,82 L -30.7753,82 L -30.7753,85 L -20.7753,85
 L -20.7753,82 L -10.7753,82 L -10.7753,85 L -7,85 L -7,4 L -10.7753,4
 L -10.7753,7 L -20.7753,7 L -20.7753,4 L -30.7753,4 L -30.7753,7 L -40.7753,7
 L -40.7753,4 L -50.7753,4 L -50.7753,7 L -60.7753,7 L -60.7753,4 L -70.7753,4
 L -70.7753,7 L -80.7753,7 L -80.7753,4 L -90.7753,4 L -90.7753,85 L -80.7753,85
 z
M 78,74 L 75,74 L 75,64 L 78,64 L 78,54 L 75,54
 L 75,44 L 78,44 L 78,34 L -2.99998,34 L -2.99998,44 L 0,44
 L 0,54 L -3,54 L -3,64 L 0,64 L 0,74 L -3,74
 L -3,84 L 78,84 z
" stroke="black" fill="lightgray" stroke-width="0.5"/></svg>
