solid OpenSCAD_Model
  facet normal -0 -0 -1
    outer loop
      vertex 45.5 4.5 0
      vertex 45.5 0 0
      vertex 40 5.5 0
    endloop
  endfacet
  facet normal 0 0 -1
    outer loop
      vertex 40 27.5 0
      vertex 0 27.5 0
      vertex 0 33 0
    endloop
  endfacet
  facet normal 0 0 -1
    outer loop
      vertex 45.5 33 0
      vertex 85 10 0
      vertex 79.5 4.5 0
    endloop
  endfacet
  facet normal 0 0 -1
    outer loop
      vertex 40 27.5 0
      vertex 0 33 0
      vertex 45.5 33 0
    endloop
  endfacet
  facet normal -0 0 -1
    outer loop
      vertex 40 5.5 0
      vertex 0 0 0
      vertex 0 5.5 0
    endloop
  endfacet
  facet normal 0 -0 -1
    outer loop
      vertex 40 5.5 0
      vertex 45.5 0 0
      vertex 0 0 0
    endloop
  endfacet
  facet normal 0 0 -1
    outer loop
      vertex 40 27.5 0
      vertex 45.5 4.5 0
      vertex 40 5.5 0
    endloop
  endfacet
  facet normal 0 0 -1
    outer loop
      vertex 45.5 33 0
      vertex 79.5 4.5 0
      vertex 45.5 4.5 0
    endloop
  endfacet
  facet normal 0 0 -1
    outer loop
      vertex 79.5 4.5 0
      vertex 85 0 0
      vertex 79.5 0 0
    endloop
  endfacet
  facet normal 0 0 -1
    outer loop
      vertex 79.5 4.5 0
      vertex 85 10 0
      vertex 85 0 0
    endloop
  endfacet
  facet normal 0 0 -1
    outer loop
      vertex 40 27.5 0
      vertex 45.5 33 0
      vertex 45.5 4.5 0
    endloop
  endfacet
  facet normal 0 0 1
    outer loop
      vertex 40 5.5 25
      vertex 45.5 0 25
      vertex 45.5 4.5 25
    endloop
  endfacet
  facet normal 0 0 1
    outer loop
      vertex 0 33 25
      vertex 0 27.5 25
      vertex 40 27.5 25
    endloop
  endfacet
  facet normal 0 -0 1
    outer loop
      vertex 79.5 4.5 25
      vertex 85 10 25
      vertex 45.5 33 25
    endloop
  endfacet
  facet normal 0 0 1
    outer loop
      vertex 45.5 33 25
      vertex 0 33 25
      vertex 40 27.5 25
    endloop
  endfacet
  facet normal -0 0 1
    outer loop
      vertex 0 5.5 25
      vertex 0 0 25
      vertex 40 5.5 25
    endloop
  endfacet
  facet normal 0 0 1
    outer loop
      vertex 0 0 25
      vertex 45.5 0 25
      vertex 40 5.5 25
    endloop
  endfacet
  facet normal -0 0 1
    outer loop
      vertex 40 5.5 25
      vertex 45.5 4.5 25
      vertex 40 27.5 25
    endloop
  endfacet
  facet normal 0 0 1
    outer loop
      vertex 45.5 4.5 25
      vertex 79.5 4.5 25
      vertex 45.5 33 25
    endloop
  endfacet
  facet normal 0 0 1
    outer loop
      vertex 79.5 0 25
      vertex 85 0 25
      vertex 79.5 4.5 25
    endloop
  endfacet
  facet normal 0 -0 1
    outer loop
      vertex 85 0 25
      vertex 85 10 25
      vertex 79.5 4.5 25
    endloop
  endfacet
  facet normal 0 -0 1
    outer loop
      vertex 45.5 4.5 25
      vertex 45.5 33 25
      vertex 40 27.5 25
    endloop
  endfacet
  facet normal 0 -1 0
    outer loop
      vertex 40 27.5 0
      vertex 0 27.5 25
      vertex 0 27.5 0
    endloop
  endfacet
  facet normal 0 -1 0
    outer loop
      vertex 40 27.5 0
      vertex 40 27.5 25
      vertex 0 27.5 25
    endloop
  endfacet
  facet normal -1 0 0
    outer loop
      vertex 40 5.5 0
      vertex 40 27.5 25
      vertex 40 27.5 0
    endloop
  endfacet
  facet normal -1 0 0
    outer loop
      vertex 40 5.5 0
      vertex 40 5.5 25
      vertex 40 27.5 25
    endloop
  endfacet
  facet normal 0 1 0
    outer loop
      vertex 0 5.5 0
      vertex 40 5.5 25
      vertex 40 5.5 0
    endloop
  endfacet
  facet normal 0 1 0
    outer loop
      vertex 0 5.5 0
      vertex 0 5.5 25
      vertex 40 5.5 25
    endloop
  endfacet
  facet normal -1 0 0
    outer loop
      vertex 0 0 0
      vertex 0 5.5 25
      vertex 0 5.5 0
    endloop
  endfacet
  facet normal -1 0 0
    outer loop
      vertex 0 0 0
      vertex 0 0 25
      vertex 0 5.5 25
    endloop
  endfacet
  facet normal 0 -1 0
    outer loop
      vertex 45.5 0 0
      vertex 0 0 25
      vertex 0 0 0
    endloop
  endfacet
  facet normal 0 -1 0
    outer loop
      vertex 45.5 0 0
      vertex 45.5 0 25
      vertex 0 0 25
    endloop
  endfacet
  facet normal 1 0 0
    outer loop
      vertex 45.5 4.5 0
      vertex 45.5 0 25
      vertex 45.5 0 0
    endloop
  endfacet
  facet normal 1 0 -0
    outer loop
      vertex 45.5 4.5 0
      vertex 45.5 4.5 25
      vertex 45.5 0 25
    endloop
  endfacet
  facet normal 0 -1 0
    outer loop
      vertex 79.5 4.5 0
      vertex 45.5 4.5 25
      vertex 45.5 4.5 0
    endloop
  endfacet
  facet normal 0 -1 0
    outer loop
      vertex 79.5 4.5 0
      vertex 79.5 4.5 25
      vertex 45.5 4.5 25
    endloop
  endfacet
  facet normal -1 0 0
    outer loop
      vertex 79.5 0 0
      vertex 79.5 4.5 25
      vertex 79.5 4.5 0
    endloop
  endfacet
  facet normal -1 0 0
    outer loop
      vertex 79.5 0 0
      vertex 79.5 0 25
      vertex 79.5 4.5 25
    endloop
  endfacet
  facet normal 0 -1 0
    outer loop
      vertex 85 0 0
      vertex 79.5 0 25
      vertex 79.5 0 0
    endloop
  endfacet
  facet normal 0 -1 0
    outer loop
      vertex 85 0 0
      vertex 85 0 25
      vertex 79.5 0 25
    endloop
  endfacet
  facet normal 1 0 0
    outer loop
      vertex 85 10 0
      vertex 85 0 25
      vertex 85 0 0
    endloop
  endfacet
  facet normal 1 0 -0
    outer loop
      vertex 85 10 0
      vertex 85 10 25
      vertex 85 0 25
    endloop
  endfacet
  facet normal 0.503191 0.864175 0
    outer loop
      vertex 45.5 33 0
      vertex 85 10 25
      vertex 85 10 0
    endloop
  endfacet
  facet normal 0.503191 0.864175 -0
    outer loop
      vertex 45.5 33 0
      vertex 45.5 33 25
      vertex 85 10 25
    endloop
  endfacet
  facet normal 0 1 0
    outer loop
      vertex 0 33 0
      vertex 45.5 33 25
      vertex 45.5 33 0
    endloop
  endfacet
  facet normal 0 1 0
    outer loop
      vertex 0 33 0
      vertex 0 33 25
      vertex 45.5 33 25
    endloop
  endfacet
  facet normal -1 0 0
    outer loop
      vertex 0 27.5 0
      vertex 0 33 25
      vertex 0 33 0
    endloop
  endfacet
  facet normal -1 0 0
    outer loop
      vertex 0 27.5 0
      vertex 0 27.5 25
      vertex 0 33 25
    endloop
  endfacet
endsolid OpenSCAD_Model
